<?xml version="1.0" encoding="utf-8"?>
<!-- Generator: Adobe Illustrator 22.0.1, SVG Export Plug-In . SVG Version: 6.00 Build 0)  -->
<svg version="1.1" id="Camada_1" xmlns="https://www.w3.org/2000/svg" xmlns:xlink="https://www.w3.org/1999/xlink" x="0px" y="0px"
	 viewBox="0 0 1080 1080" style="enable-background:new 0 0 1080 1080;" xml:space="preserve">
<style type="text/css">
	.st0{fill:url(#SVGID_1_);}
	.st1{fill:url(#SVGID_2_);}
	.st2{opacity:0.4;fill:#8C1134;}
</style>
<linearGradient id="SVGID_1_" gradientUnits="userSpaceOnUse" x1="232.7081" y1="540" x2="847.8" y2="540">
	<stop  offset="0" style="stop-color:#97264F"/>
	<stop  offset="0.2264" style="stop-color:#A0264F"/>
	<stop  offset="0.6027" style="stop-color:#BA264F"/>
	<stop  offset="0.9944" style="stop-color:#DB264F"/>
</linearGradient>
<path class="st0" d="M463.3,677.8c2.1,40.7,35.8,73,77,73c41.1,0,74.7-32.2,77-72.7c0-1,0-2.1,0-3.1c0-1.1,0-2.2,0.1-3.4V563.3
	c0-1.1-0.1-2.2-0.1-3.4s0-2.2,0.1-3.4V448.1c0-1.1-0.1-2.2-0.1-3.4c0-1.1,0-2.2,0.1-3.4v-57.3v-50.8c0-1.1-0.1-2.2-0.1-3.4
	s0-2.2,0.1-3.4v-109c0-1.1-0.1-2.2-0.1-3.4c0-63.7,51.6-115.3,115.3-115.3c63.7,0,115.3,51.6,115.3,115.3c0,1.1,0,2.2-0.1,3.4v109
	c0,1.1,0.1,2.2,0.1,3.4s0,2.2-0.1,3.4v108.1c0,1.1,0.1,2.2,0.1,3.4c0,1.1,0,2.2-0.1,3.4v108.5c0,1.1,0.1,2.2,0.1,3.4s0,2.2-0.1,3.4
	v108.3c0,1.1,0.1,2.2,0.1,3.4c0,1.7,0,3.4-0.1,5.1C844.2,846.9,708,981,540.3,981c-165.9,0-301.2-131.5-307.2-295.9
	c-0.1-1-0.2-2.1-0.2-3.1c-0.1-2.3-0.2-4.7-0.2-7c0-1.1,0-2.2,0.1-3.4V563.1c0-1.1-0.1-2.2-0.1-3.4s0-2.2,0.1-3.4V447.9
	c0-1.1-0.1-2.2-0.1-3.4s0-2.2,0.1-3.4V333.1c0-1.1-0.1-2.2-0.1-3.4c0-63.7,51.6-115.3,115.3-115.3c63.7,0,115.3,51.6,115.3,115.3
	c0,1.1,0,2.2-0.1,3.4v43.3v64.8c0,1.1,0.1,2.2,0.1,3.4s0,2.2-0.1,3.4v108.5c0,1.1,0.1,2.2,0.1,3.4c0,1.1,0,2.2-0.1,3.4v108.5
	c0,1.1,0.1,2.2,0.1,3.4L463.3,677.8z"/>
<linearGradient id="SVGID_2_" gradientUnits="userSpaceOnUse" x1="232.7081" y1="597.7257" x2="653.1156" y2="597.7257">
	<stop  offset="0" style="stop-color:#DB264F"/>
	<stop  offset="0.5443" style="stop-color:#DB2658"/>
	<stop  offset="0.9944" style="stop-color:#DB2664"/>
</linearGradient>
<path class="st1" d="M463.2,675.4c0-1.6,0-3.3,0-4.9V563.1c0-1.1,0.1-2.2,0.1-3.4c0-1.1,0-2.2-0.1-3.4V447.9c0-1.1,0.1-2.2,0.1-3.4
	s0-2.2-0.1-3.4v-64.8v-43.3c0-1.1,0.1-2.2,0.1-3.4c0-63.7-51.6-115.3-115.3-115.3c-63.7,0-115.3,51.6-115.3,115.3
	c0,1.1,0,2.2,0.1,3.4v108.1c0,1.1-0.1,2.2-0.1,3.4c0,1.1,0,2.2,0.1,3.4v108.5c0,1.1-0.1,2.2-0.1,3.4c0,1.1,0,2.2,0.1,3.4v108.5
	c0,1.1-0.1,2.2-0.1,3.4c0,2.4,0.1,4.7,0.2,7c0.1,1,0.1,2.1,0.2,3.1c6,164.5,141.3,295.9,307.2,295.9c39.8,0,77.9-7.6,112.8-21.3
	C541.6,913.5,463.2,803.6,463.2,675.4z"/>
<path class="st2" d="M617.7,693.1c0-3.7-0.3-7.4-0.8-11c-4.1,38.6-36.8,68.6-76.5,68.6c-39.9,0-72.7-30.3-76.6-69.2
	c-0.6,3.8-0.9,7.6-0.9,11.5c0,42.7,34.6,77.4,77.4,77.4S617.7,735.9,617.7,693.1z"/>
</svg>
